<svg width="17" height="21" viewBox="0 0 17 21" fill="none" xmlns="http://www.w3.org/2000/svg">
<path d="M11.25 8.25C11.25 9.04565 10.9339 9.80871 10.3713 10.3713C9.80871 10.9339 9.04565 11.25 8.25 11.25C7.45435 11.25 6.69129 10.9339 6.12868 10.3713C5.56607 9.80871 5.25 9.04565 5.25 8.25C5.25 7.45435 5.56607 6.69129 6.12868 6.12868C6.69129 5.56607 7.45435 5.25 8.25 5.25C9.04565 5.25 9.80871 5.56607 10.3713 6.12868C10.9339 6.69129 11.25 7.45435 11.25 8.25Z" stroke="#FCDE68" stroke-width="1.5" stroke-linecap="round" stroke-linejoin="round"/>
<path d="M15.75 8.25C15.75 15.392 8.25 19.5 8.25 19.5C8.25 19.5 0.75 15.392 0.75 8.25C0.75 6.26088 1.54018 4.35322 2.9467 2.9467C4.35322 1.54018 6.26088 0.75 8.25 0.75C10.2391 0.75 12.1468 1.54018 13.5533 2.9467C14.9598 4.35322 15.75 6.26088 15.75 8.25Z" stroke="#FCDE68" stroke-width="1.5" stroke-linecap="round" stroke-linejoin="round"/>
</svg>
